PathFileType	4	(X/Y/Z)	Kaydara	
DataRate	CameraRate	NumFrames	NumMarkers	Units	OrigDataRate	OrigDataStartFrame	OrigNumFrames	
120.00	120.00	4	72	mm	120.00	98	261	
Frame#	Time	Hips			RightUpLeg			RightLeg			RightFoot			RightFoot_End			LeftUpLeg			LeftLeg			LeftFoot			LeftFoot_End			Spine			Spine1			Spine2			Spine3			Neck			Head			Head_End			RightShoulder			RightArm			RightForeArm			RightHand			RightHandThumb1			RightHandThumb2			RightHandThumb3			RightHandThumb3_End			RightInHandIndex			RightHandIndex1			RightHandIndex2			RightHandIndex3			RightHandIndex3_End			RightInHandMiddle			RightHandMiddle1			RightHandMiddle2			RightHandMiddle3			RightHandMiddle3_End			RightInHandRing			RightHandRing1			RightHandRing2			RightHandRing3			RightHandRing3_End			RightInHandPinky			RightHandPinky1			RightHandPinky2			RightHandPinky3			RightHandPinky3_End			LeftShoulder			LeftArm			LeftForeArm			LeftHand			LeftHandThumb1			LeftHandThumb2			LeftHandThumb3			LeftHandThumb3_End			LeftInHandIndex			LeftHandIndex1			LeftHandIndex2			LeftHandIndex3			LeftHandIndex3_End			LeftInHandMiddle			LeftHandMiddle1			LeftHandMiddle2			LeftHandMiddle3			LeftHandMiddle3_End			LeftInHandRing			LeftHandRing1			LeftHandRing2			LeftHandRing3			LeftHandRing3_End			LeftInHandPinky			LeftHandPinky1			LeftHandPinky2			LeftHandPinky3			LeftHandPinky3_End			
		X1	Y1	Z1	X2	Y2	Z2	X3	Y3	Z3	X4	Y4	Z4	X5	Y5	Z5	X6	Y6	Z6	X7	Y7	Z7	X8	Y8	Z8	X9	Y9	Z9	X10	Y10	Z10	X11	Y11	Z11	X12	Y12	Z12	X13	Y13	Z13	X14	Y14	Z14	X15	Y15	Z15	X16	Y16	Z16	X17	Y17	Z17	X18	Y18	Z18	X19	Y19	Z19	X20	Y20	Z20	X21	Y21	Z21	X22	Y22	Z22	X23	Y23	Z23	X24	Y24	Z24	X25	Y25	Z25	X26	Y26	Z26	X27	Y27	Z27	X28	Y28	Z28	X29	Y29	Z29	X30	Y30	Z30	X31	Y31	Z31	X32	Y32	Z32	X33	Y33	Z33	X34	Y34	Z34	X35	Y35	Z35	X36	Y36	Z36	X37	Y37	Z37	X38	Y38	Z38	X39	Y39	Z39	X40	Y40	Z40	X41	Y41	Z41	X42	Y42	Z42	X43	Y43	Z43	X44	Y44	Z44	X45	Y45	Z45	X46	Y46	Z46	X47	Y47	Z47	X48	Y48	Z48	X49	Y49	Z49	X50	Y50	Z50	X51	Y51	Z51	X52	Y52	Z52	X53	Y53	Z53	X54	Y54	Z54	X55	Y55	Z55	X56	Y56	Z56	X57	Y57	Z57	X58	Y58	Z58	X59	Y59	Z59	X60	Y60	Z60	X61	Y61	Z61	X62	Y62	Z62	X63	Y63	Z63	X64	Y64	Z64	X65	Y65	Z65	X66	Y66	Z66	X67	Y67	Z67	X68	Y68	Z68	X69	Y69	Z69	X70	Y70	Z70	X71	Y71	Z71	X72	Y72	Z72	

98	0.808	1081.203	893.81699	129.612	1170.7371682359967	901.7127252109158	93.63024275100224	1058.4224251987177	502.03016541525193	36.644509050563705	1041.428400224827	111.36467761198062	24.391446367695107	926.7437970937216	42.54955566383679	163.71535271071087	1004.050001627539	860.0407876944001	179.60373427934894	898.5275431491724	471.88789941130784	295.8937937397273	780.8130413105583	80.8688711609059	465.7217207720192	635.1389696940668	35.61230036331922	351.1804593448005	1022.3558864833954	1013.1636718064445	77.61941042083974	965.1840973527763	1073.9793238761072	28.276465940556356	901.9579849408478	1131.1660327470083	-25.940263918690846	837.0051719152191	1176.0345935455352	-82.42564160005007	765.848512763308	1225.3011715153034	-139.65118926835612	691.4181572277812	1263.1895732139842	-183.44319007753256	552.3687126695073	1340.5281323256427	-195.489362688871	813.010331444619	1224.5400419299797	-135.33719009847593	900.4544453531471	1278.07574452977	-202.53454639425198	1016.6147789316212	1075.2756589040964	-302.4239215725346	1206.7894855407094	991.9324719003067	-413.71343163630263	1216.8982076445484	1009.4495093246841	-434.6976058955813	1216.9431324319632	1011.6095910004101	-463.8800627732867	1218.637237434389	1009.5725918153928	-483.7796334876266	1221.472006522127	1004.8449690063542	-500.0071014947604	1225.6000305106613	998.9844955163983	-434.4972058292995	1252.6602376285591	993.9315272680144	-467.32958747773165	1261.803837651436	987.0908251652248	-493.4306913185693	1258.7165605360544	984.289999010931	-509.24026591385035	1250.2443421162811	982.9512237974731	-522.0442444940202	1228.7202717639966	989.370663491861	-432.3583289622771	1256.8045014166698	979.2429614833969	-463.22420679486095	1267.0938136634095	970.5221064981794	-491.3210359608552	1263.5187476990886	966.5401711040637	-510.21011397125466	1254.3213226271441	964.7822281383093	-524.1302616359438	1230.3488095389532	982.717029734939	-429.9801258236086	1257.2669294148225	967.8928372529447	-455.4920286367002	1266.508343162461	959.023499664916	-479.5398545019858	1263.2049674208204	954.5091233724481	-497.5254274404554	1254.6258107476629	952.5370688158735	-510.5027693198968	1230.5388795249278	975.119108557756	-426.5184435137395	1255.7385485333125	956.8689449581161	-447.6960961431769	1263.4467120579159	947.8527549315104	-466.1529185378267	1261.1862062643836	943.6341104102319	-478.8847845768256	1253.6722041724906	941.3543507217682	-490.1579455372201	765.9169683467805	1191.759613898329	-106.59214390881196	698.7649291819266	1092.1656379166307	-66.20506559374924	912.7377353196955	1027.7434564988405	-191.9233075200672	1131.0997464421228	994.0406511599122	-308.60062595777543	1146.100434121765	1016.4006954656336	-320.6457842475382	1176.4699886762114	1025.50472281183	-314.48900802297595	1199.7188424930252	1028.3040168995005	-309.9005391620084	1220.8964760599142	1027.608634971083	-305.8179256504114	1154.4555630490572	1006.2551595250985	-322.6502439411165	1200.308180084092	1009.6427414336453	-334.4391130612643	1235.1405549839747	1009.3526110774203	-332.07771301130543	1253.1322903028629	1010.3403993453675	-324.14064854515476	1265.5528814531294	1011.9459438855353	-313.2076324688014	1158.7088900909002	996.381115845456	-320.9193721923975	1205.7319437812966	994.3451292343138	-331.4846539476174	1244.1571264975655	992.7113813112924	-328.62809233484705	1266.0631715015775	993.2710487440871	-318.9180335167242	1279.7506190262552	994.7205491738472	-306.8900284568729	1160.5369434322215	989.323057819547	-319.50333560288294	1204.2458642855663	981.3844239173163	-328.0576985293394	1238.0887011214147	978.6173388243914	-325.2640632473246	1259.4053857001006	978.4439168692472	-315.73655566154497	1272.3634264645593	979.4688110861044	-304.35072644771776	1161.3693189773546	981.0553868064611	-316.6816490364241	1201.9639097746483	968.6930129947694	-323.1531542329521	1229.4215209619988	964.4164214004552	-320.4039720934697	1245.1429309365913	963.2930449360092	-313.2068385240733	1256.7211870835883	963.6272224787762	-302.97826802402653
99	0.817	1081.203	893.81699	129.612	1170.5984848047588	901.6200570257448	93.6962494292414	1058.1812134036265	501.9185890014367	37.042212160850426	1041.6360622545806	111.43621756543322	24.679438204308692	927.0776860665392	42.55876322576855	164.02274417296834	1004.1599560689275	860.1220515927138	179.54478948504004	898.5868442763876	472.00158516962097	295.89016924680755	780.8150249600095	80.9521989983073	465.6384002684799	635.0255170319986	36.00901262428881	351.12867262007614	1022.4942901069552	1013.2088056620236	77.57164229633484	965.414825017727	1074.0961016906115	28.206778875354967	902.2885463991946	1131.373440024222	-26.03476856112493	837.4364199603704	1176.3573541434162	-82.55040141836866	766.3817520164203	1225.7398470785522	-139.8080702649549	692.0017779897104	1263.7138629241792	-183.5978024203683	552.9453692370307	1341.0329415041897	-195.6844505470285	813.4872063171167	1224.9456111283173	-135.41264066346383	900.9223473273681	1278.659398438685	-202.30163376900248	1017.3112915343089	1076.2237531928517	-302.47282614238424	1207.6659383431017	993.7611472107271	-414.08308750135427	1217.9043369981546	1011.5020124091325	-434.99450286428316	1218.0691027487433	1013.8346654461461	-464.2718853522329	1219.8354478989372	1011.905086192412	-484.2547144598049	1222.7208728990067	1007.2560883650897	-500.56625837510063	1226.577232465144	1001.0165401469648	-434.83654598263865	1253.7526696438215	996.2064116467122	-467.7397371063598	1262.9799144341757	989.5092866192541	-493.95611988199664	1259.94672468275	986.7753359164977	-509.8541435838688	1251.5206782934902	985.4767831246168	-522.7426617332558	1229.6631584301049	991.3583279661001	-432.74498219056983	1257.8412012393892	981.4434932804636	-463.70549134652254	1268.2169018727081	972.8726347076755	-491.93422082165034	1264.7047293944506	968.9681713210772	-510.93294212548443	1255.5566889021557	967.2526934878827	-524.9469975898486	1231.2644225946565	984.6673662017241	-430.39785021338014	1258.242701956384	970.002199497621	-456.01995361691576	1267.5542444567031	961.2564534029929	-480.1888352795235	1264.3088053243944	956.8129973393623	-498.28339126940665	1255.774777151814	954.879071354166	-511.350565284846	1231.4203898610967	977.017640319371	-426.9742229716783	1256.6539642657024	958.8822249708361	-448.2746169862939	1264.409984646813	949.9531279173482	-466.83738970614087	1262.1877154885358	945.7804665651361	-479.6531155937374	1254.7113838133355	943.5311859256778	-491.00835496020073	766.4397929352215	1192.1573563265044	-106.8103903258851	699.2536922594269	1092.6571314325977	-66.73841436664904	913.1022850216061	1028.593033981075	-192.34314804636932	1131.475802289132	995.5111136315236	-308.8047748747204	1146.736241875101	1017.924728818938	-320.85847721328713	1177.2117800668427	1026.9865405915682	-314.66313024958475	1200.504957648527	1029.7351927624416	-310.0528665353766	1221.6943103792585	1028.979436578563	-305.956416482092	1155.0194068489577	1007.7111870562244	-322.88868378636994	1201.0066782352328	1010.9841955748317	-334.7192626895828	1235.8797917840775	1010.5973884611192	-332.3505473742026	1253.8813581952268	1011.5419479570786	-324.38162236206006	1266.2996260915234	1013.1231089296815	-313.40379100230217	1159.1853139824125	997.7825781474178	-321.16840554563964	1206.2924367648486	995.6053412456705	-331.7801240066683	1244.7500454482752	993.8592534571212	-328.9167731024828	1266.6621735626197	994.3634908017201	-319.1688507391676	1280.344269222415	995.7846988306225	-307.09211066626267	1160.9485411306832	990.6889140568001	-319.75919798747776	1204.677627037497	982.5927987618398	-328.36230578406236	1238.5362821702502	979.7210213728944	-325.5639251484084	1259.8522172531962	979.4905295578981	-316.00051952856325	1272.8021034879735	980.4871212251163	-304.5691560608911	1161.6993818199478	982.3834259391657	-316.9409439195241	1202.2634833637107	969.8533097859101	-323.4606593225243	1229.714257276858	965.4830019550725	-320.70928310119626	1245.4256991435645	964.3132175455866	-313.48673916695753	1256.991292207238	964.6195572498195	-303.21827826692424
100	0.825	1081.203	893.81699	129.612	1170.4470604673093	901.5163176239962	93.7512030071105	1057.9533743979955	501.78427406983457	37.480064905036116	1042.0844142774215	111.48461638539395	24.706616374318827	927.6840686081478	42.516926032608	164.07743027105943	1004.2824245449075	860.2137398538227	179.49581599904093	898.6691684271759	472.123117630384	295.8981848681	780.6437661445565	81.43108396077571	466.17856620597234	634.8112010596902	36.682507451665145	351.64834745075945	1022.6360407084592	1013.2572279552775	77.52816492752319	965.6970966256722	1074.2410557945993	28.117070801857277	902.7305908966046	1131.6421721073941	-26.182764469320542	838.0548819710924	1176.7881167422495	-82.7751185564083	767.1798216080422	1226.3354542552697	-140.1167853363504	692.8920938783551	1264.4367433080447	-183.94294064554578	553.8280477675019	1341.734355135766	-196.07306507213065	814.2162988498544	1225.4832370028969	-135.5898133329567	901.6322820834125	1279.3723051457514	-202.12814935488962	1018.7720611858668	1077.6736826923984	-302.2433629327705	1209.2685814403872	996.0725963056562	-414.13581026267616	1219.6257950831582	1014.0349760780703	-434.9753759714726	1219.9056750581751	1016.5357643091735	-464.3417870658072	1221.7418382270926	1014.7110580909695	-484.40285432223646	1224.676607090484	1010.1390417912829	-500.7935154411128	1228.2712976194982	1003.5311715103747	-434.8570547472586	1255.5531171252499	998.9640244583474	-467.8230982750638	1264.8606413178707	992.4085790410735	-494.14717943013915	1261.8809703746688	989.7387592115366	-510.12916716909155	1253.5016621057753	988.4771380842293	-523.0986351391986	1231.3256509523217	993.8299686101635	-432.81050789212014	1259.5903773465764	984.1288919102396	-463.8566542111272	1270.0491672560752	975.7061414918018	-492.20871643453705	1266.599414792695	971.8759301570201	-511.3115214864166	1257.501465841525	970.1993470676844	-525.4155171656706	1232.901789332047	987.1026887113891	-430.4930430943933	1259.9356140009495	972.5982781792608	-456.21609660449127	1269.3148462711292	963.9746350138605	-480.498285945573	1266.127095613435	959.5991048051135	-498.6963277013517	1257.638973706	957.6999905854013	-511.8495314079917	1233.0265735726912	979.4021152365766	-427.10596620784145	1258.2915369493594	961.3836964778355	-448.51972533089673	1266.0941323699644	952.5407961227305	-467.1818691762865	1263.9102495806535	948.412075176976	-480.07725190281616	1256.4724583747166	946.1904004554913	-491.5111131487818	767.1889253349633	1192.7048714678433	-107.19623647598924	699.9764861897331	1093.32143019028	-67.43027473934512	913.6907217590144	1029.6056975606352	-192.8592829508596	1132.0268586282868	997.1299809903861	-309.11912887684116	1147.0053654505716	1019.8849287514264	-320.80779728668335	1177.230134179301	1029.1914931155552	-314.29944532798254	1200.3814494085295	1032.125749128021	-309.49628381361794	1221.4805676449969	1031.537680265614	-305.26048325839525	1155.3835632665064	1009.7785986502582	-322.8914191758648	1201.1919146019918	1013.6998493985772	-334.3517548622153	1235.922220398783	1013.6488948174928	-331.7413791087252	1253.812148770688	1014.6763385804206	-323.6392926103781	1266.1226036586445	1016.2411661526361	-312.5627738343291	1159.6439666360445	999.8631579400625	-321.25300308366235	1206.627691918611	998.3253563195823	-331.5478652015168	1244.942490997409	996.9452399403741	-328.4328517269202	1266.7261862672165	997.5492216747043	-318.53004288336206	1280.2933494026367	998.9524421886858	-306.3481119879964	1161.4788830609534	992.7636542411927	-319.91101317464864	1205.1606754158602	985.2396221263359	-328.2882869241831	1238.9083657556523	982.685280302003	-325.2833324986768	1260.1075897469307	982.5501875479896	-315.57732442979085	1272.9528071104485	983.5294769448786	-304.05027710148636	1162.314657198073	984.4216384929427	-317.18150859164206	1202.8889210095908	972.3986197843419	-323.548456065166	1230.2721066161625	968.2775809713157	-320.6526096864174	1245.908703891787	967.1750033587226	-313.33616673809735	1257.3875067134413	967.4646582895737	-302.9887779486634
101	0.833	1081.203	893.81699	129.612	1170.2861484925775	901.4063979015385	93.80854246697704	1057.6818054422129	501.6583775883343	37.88022647942117	1042.2962961087949	111.55645887609252	24.960386902312557	928.0555197139187	42.50653938937615	164.36108567473244	1004.4146179215937	860.3147130175663	179.4502545596122	898.7273076811507	472.26418459657646	295.9096964214936	780.6713344628481	81.47486747471524	465.9749191633451	634.8846812126849	36.74019368696687	351.37286527255196	1022.7770303707291	1013.2934363646857	77.45707602316983	965.9756509861339	1074.3629471701104	27.989954334006256	903.1666676116652	1131.8769654697794	-26.376425680983658	838.6617187878617	1177.17122715976	-83.04914861323593	767.9618925128314	1226.8713852765982	-140.47878742197923	693.7642883352022	1265.091263960633	-184.34398483146833	554.7012782924596	1342.3869731086158	-196.48193610588814	814.9297537562277	1225.9492924396352	-135.8381789692347	902.3206999795304	1279.9665306214906	-202.04935519042147	1019.4016106662378	1078.3587455023228	-302.36004050925845	1210.0134603491917	997.547124727248	-414.4712773937177	1220.4866673532683	1015.726377260152	-435.23491940865506	1220.885818465152	1018.3908508269895	-464.6819500715126	1222.794994114321	1016.6682783955148	-484.81437825414326	1225.7820596664433	1012.171280955578	-501.2775306603274	1229.105055255404	1005.2051706248835	-435.15219562607206	1256.4933819441871	1000.8765890469042	-468.1648572376726	1265.8847233889699	994.4595951196917	-494.585330827486	1262.9623931696099	991.8518541703659	-510.6463306929228	1254.6340675828628	990.6254277017625	-523.6940923549417	1232.1288891043787	995.4621450616752	-433.14841837969186	1260.4809808677812	985.9711348107611	-464.2631687430012	1271.026881475214	977.6931308584599	-492.72599294764086	1267.6442139739497	973.9347842819599	-511.9268070085023	1258.6010233893874	972.2952388488134	-526.1177542804293	1233.6805970168293	988.6994677519101	-430.85946005810956	1260.7711090732603	974.3533351857682	-456.6671462663787	1270.2216640731547	965.8490617075145	-481.05146852589166	1267.096183183298	961.5392345884151	-499.34701878695034	1258.6584028772202	959.6732291171919	-512.5833934537304	1233.7752755698036	980.9492229765299	-427.5081399897066	1259.073217636564	963.0462783569263	-449.01976147486226	1266.9255181762333	954.2876519324536	-467.7720517097724	1264.7834703373433	950.201386931155	-480.74261080636074	1257.3882080676394	948.005900937145	-492.2524629934061	767.9238834515295	1193.2121554225457	-107.6138220360056	700.7009659164813	1093.9639733173071	-68.14283511558334	914.3062236732547	1030.5906216021822	-193.2598183945369	1132.579817637709	998.6729551150838	-309.2809913116822	1147.9159263583788	1021.4113795092856	-321.04331839368916	1178.3153183384159	1030.5985525139356	-314.5615569171874	1201.5456457394391	1033.422068091916	-309.7799724548895	1222.6742194780406	1032.7180979012223	-305.5647876639845	1156.1842782211872	1011.204986282216	-323.1519659182787	1202.170021183376	1014.8442983703309	-334.74296769344807	1236.9703841656321	1014.5953437528992	-332.1846893516997	1254.895479709752	1015.5430482494721	-324.0810297722281	1267.2293895821138	1017.0711318065703	-312.9802979943467	1160.320135514315	1001.2242532096526	-321.51548816629105	1207.4095449127574	999.3761356903639	-331.9388652881277	1245.7837135027505	997.7722626187251	-328.8804643037527	1267.6016398984339	998.2763478637144	-318.97565781571797	1281.1904855451198	999.6375577424805	-306.767202937811	1162.0628399589932	994.0855890357415	-320.1719592610483	1205.7601700837176	986.2488305322877	-328.6643817589066	1239.541983551726	983.4920762184744	-325.7083535486007	1260.7648699036656	983.2567041252936	-316.0001840357409	1273.626032090222	984.1946399183723	-304.44807905554757	1162.7848376585168	985.7083397666939	-317.4334530240787	1203.3042625794092	973.3759320884692	-323.9019692297435	1230.6872140524104	969.082663840536	-321.0441194093739	1246.3277470237695	967.9020301762738	-313.72554803760164	1257.8129904177492	968.1522231692779	-303.3556283868629
